<svg width="20" height="20" viewBox="0 0 20 20" fill="none" xmlns="http://www.w3.org/2000/svg">
<path d="M15.8323 2.49982H4.16654C3.24614 2.49982 2.5 3.24595 2.5 4.16636V15.8321C2.5 16.7525 3.24614 17.4987 4.16654 17.4987H15.8323C16.7527 17.4987 17.4989 16.7525 17.4989 15.8321V4.16636C17.4989 3.24595 16.7527 2.49982 15.8323 2.49982Z" stroke="#8F8F8F" stroke-width="1.66654" stroke-linecap="round" stroke-linejoin="round"/>
<path d="M7.49955 9.16597C8.41995 9.16597 9.16609 8.41983 9.16609 7.49943C9.16609 6.57902 8.41995 5.83289 7.49955 5.83289C6.57914 5.83289 5.83301 6.57902 5.83301 7.49943C5.83301 8.41983 6.57914 9.16597 7.49955 9.16597Z" stroke="#8F8F8F" stroke-width="1.66654" stroke-linecap="round" stroke-linejoin="round"/>
<path d="M17.4991 12.499L14.9276 9.92758C14.6151 9.61515 14.1912 9.43964 13.7493 9.43964C13.3074 9.43964 12.8836 9.61515 12.5711 9.92758L5 17.4987" stroke="#8F8F8F" stroke-width="1.66654" stroke-linecap="round" stroke-linejoin="round"/>
</svg>
