<svg width="20" height="20" viewBox="0 0 20 20" fill="none" xmlns="http://www.w3.org/2000/svg">
<g clip-path="url(#clip0_1835_3491)">
<path d="M18.3324 14.1656C18.3324 14.6076 18.1568 15.0315 17.8443 15.344C17.5317 15.6566 17.1078 15.8321 16.6659 15.8321H5.69002C5.24806 15.8322 4.82424 16.0079 4.51178 16.3204L2.67692 18.1553C2.59418 18.238 2.48877 18.2944 2.37401 18.3172C2.25926 18.34 2.14032 18.3283 2.03222 18.2835C1.92413 18.2387 1.83173 18.1629 1.76672 18.0656C1.70171 17.9684 1.66701 17.854 1.66699 17.737V4.16636C1.66699 3.72436 1.84257 3.30047 2.15511 2.98794C2.46765 2.6754 2.89154 2.49982 3.33353 2.49982H16.6659C17.1078 2.49982 17.5317 2.6754 17.8443 2.98794C18.1568 3.30047 18.3324 3.72436 18.3324 4.16636V14.1656Z" stroke="#8F8F8F" stroke-width="1.66654" stroke-linecap="round" stroke-linejoin="round"/>
</g>
<defs>
<clipPath id="clip0_1835_3491">
<rect width="19.9985" height="19.9985" fill="white"/>
</clipPath>
</defs>
</svg>
