<svg width="20" height="20" viewBox="0 0 20 20" fill="none" xmlns="http://www.w3.org/2000/svg">
<path d="M7.49962 2.49982H3.33327C2.87307 2.49982 2.5 2.87288 2.5 3.33309V9.16598C2.5 9.62618 2.87307 9.99925 3.33327 9.99925H7.49962C7.95982 9.99925 8.33289 9.62618 8.33289 9.16598V3.33309C8.33289 2.87288 7.95982 2.49982 7.49962 2.49982Z" stroke="#8F8F8F" stroke-width="1.66654" stroke-linecap="round" stroke-linejoin="round"/>
<path d="M16.6656 2.49982H12.4993C12.0391 2.49982 11.666 2.87288 11.666 3.33309V5.8329C11.666 6.2931 12.0391 6.66617 12.4993 6.66617H16.6656C17.1258 6.66617 17.4989 6.2931 17.4989 5.8329V3.33309C17.4989 2.87288 17.1258 2.49982 16.6656 2.49982Z" stroke="#8F8F8F" stroke-width="1.66654" stroke-linecap="round" stroke-linejoin="round"/>
<path d="M16.6656 9.99924H12.4993C12.0391 9.99924 11.666 10.3723 11.666 10.8325V16.6654C11.666 17.1256 12.0391 17.4987 12.4993 17.4987H16.6656C17.1258 17.4987 17.4989 17.1256 17.4989 16.6654V10.8325C17.4989 10.3723 17.1258 9.99924 16.6656 9.99924Z" stroke="#8F8F8F" stroke-width="1.66654" stroke-linecap="round" stroke-linejoin="round"/>
<path d="M7.49962 13.3323H3.33327C2.87307 13.3323 2.5 13.7054 2.5 14.1656V16.6654C2.5 17.1256 2.87307 17.4987 3.33327 17.4987H7.49962C7.95982 17.4987 8.33289 17.1256 8.33289 16.6654V14.1656C8.33289 13.7054 7.95982 13.3323 7.49962 13.3323Z" stroke="#8F8F8F" stroke-width="1.66654" stroke-linecap="round" stroke-linejoin="round"/>
</svg>
