<svg width="20" height="20" viewBox="0 0 20 20" fill="none" xmlns="http://www.w3.org/2000/svg">
<g clip-path="url(#clip0_1835_3483)">
<path d="M13.3328 17.4987V15.8321C13.3328 14.9481 12.9816 14.1004 12.3565 13.4753C11.7315 12.8502 10.8837 12.4991 9.99969 12.4991H5.00007C4.11608 12.4991 3.2683 12.8502 2.64323 13.4753C2.01816 14.1004 1.66699 14.9481 1.66699 15.8321V17.4987" stroke="#8F8F8F" stroke-width="1.66654" stroke-linecap="round" stroke-linejoin="round"/>
<path d="M13.332 2.60646C14.0468 2.79175 14.6798 3.20913 15.1316 3.79309C15.5835 4.37704 15.8287 5.09451 15.8287 5.83288C15.8287 6.57125 15.5835 7.28872 15.1316 7.87268C14.6798 8.45663 14.0468 8.87401 13.332 9.0593" stroke="#8F8F8F" stroke-width="1.66654" stroke-linecap="round" stroke-linejoin="round"/>
<path d="M18.3318 17.4987V15.8321C18.3313 15.0936 18.0855 14.3762 17.633 13.7926C17.1806 13.2089 16.5471 12.792 15.832 12.6074" stroke="#8F8F8F" stroke-width="1.66654" stroke-linecap="round" stroke-linejoin="round"/>
<path d="M7.4991 9.16597C9.33991 9.16597 10.8322 7.6737 10.8322 5.83289C10.8322 3.99208 9.33991 2.49981 7.4991 2.49981C5.65829 2.49981 4.16602 3.99208 4.16602 5.83289C4.16602 7.6737 5.65829 9.16597 7.4991 9.16597Z" stroke="#8F8F8F" stroke-width="1.66654" stroke-linecap="round" stroke-linejoin="round"/>
</g>
<defs>
<clipPath id="clip0_1835_3483">
<rect width="19.9985" height="19.9985" fill="white"/>
</clipPath>
</defs>
</svg>
