<svg width="20" height="20" viewBox="0 0 20 20" fill="none" xmlns="http://www.w3.org/2000/svg">
<g clip-path="url(#clip0_1835_3496)">
<path d="M9.60344 1.91234C9.63995 1.83856 9.69636 1.77646 9.7663 1.73304C9.83624 1.68962 9.91692 1.66661 9.99924 1.66661C10.0816 1.66661 10.1622 1.68962 10.2322 1.73304C10.3021 1.77646 10.3585 1.83856 10.395 1.91234L12.3199 5.81121C12.4467 6.06783 12.6339 6.28985 12.8654 6.4582C13.0969 6.62656 13.3658 6.73623 13.649 6.7778L17.9536 7.40775C18.0352 7.41957 18.1118 7.45398 18.1749 7.50708C18.2379 7.56018 18.2848 7.62986 18.3103 7.70824C18.3358 7.78661 18.3388 7.87056 18.3191 7.95058C18.2994 8.03059 18.2576 8.10349 18.1986 8.16103L15.0855 11.1925C14.8802 11.3925 14.7266 11.6395 14.6379 11.9121C14.5492 12.1847 14.5281 12.4748 14.5764 12.7573L15.3113 17.0404C15.3257 17.1219 15.3169 17.2058 15.2859 17.2826C15.2549 17.3593 15.203 17.4258 15.136 17.4745C15.069 17.5231 14.9897 17.552 14.9071 17.5577C14.8245 17.5635 14.742 17.5459 14.6689 17.507L10.8208 15.4838C10.5673 15.3507 10.2852 15.2811 9.99882 15.2811C9.71245 15.2811 9.43035 15.3507 9.1768 15.4838L5.32959 17.507C5.25654 17.5457 5.1741 17.5631 5.09165 17.5572C5.00921 17.5513 4.93006 17.5225 4.86321 17.4738C4.79636 17.4252 4.7445 17.3588 4.71352 17.2822C4.68254 17.2056 4.67369 17.1218 4.68798 17.0404L5.42209 12.7582C5.47058 12.4755 5.44957 12.1852 5.36087 11.9125C5.27218 11.6397 5.11845 11.3926 4.91296 11.1925L1.79986 8.16186C1.74036 8.10439 1.6982 8.03137 1.67817 7.95111C1.65815 7.87085 1.66107 7.78657 1.6866 7.70789C1.71214 7.62921 1.75925 7.55928 1.82259 7.50607C1.88593 7.45285 1.96294 7.4185 2.04484 7.40692L6.34868 6.7778C6.63221 6.73655 6.90147 6.62703 7.13328 6.45865C7.36509 6.29027 7.55251 6.06808 7.67942 5.81121L9.60344 1.91234Z" stroke="#8F8F8F" stroke-width="1.66654" stroke-linecap="round" stroke-linejoin="round"/>
</g>
<defs>
<clipPath id="clip0_1835_3496">
<rect width="19.9985" height="19.9985" fill="white"/>
</clipPath>
</defs>
</svg>
