<svg width="16" height="16" viewBox="0 0 16 16" fill="none" xmlns="http://www.w3.org/2000/svg">
<path d="M12.6586 1.99902H3.33148C2.59558 1.99902 1.99902 2.59558 1.99902 3.33148V12.6586C1.99902 13.3945 2.59558 13.9911 3.33148 13.9911H12.6586C13.3945 13.9911 13.9911 13.3945 13.9911 12.6586V3.33148C13.9911 2.59558 13.3945 1.99902 12.6586 1.99902Z" stroke="#FBFBFB" stroke-width="1.33245" stroke-linecap="round" stroke-linejoin="round"/>
<path d="M5.99652 7.32897C6.73241 7.32897 7.32897 6.73241 7.32897 5.99652C7.32897 5.26062 6.73241 4.66406 5.99652 4.66406C5.26062 4.66406 4.66406 5.26062 4.66406 5.99652C4.66406 6.73241 5.26062 7.32897 5.99652 7.32897Z" stroke="#FBFBFB" stroke-width="1.33245" stroke-linecap="round" stroke-linejoin="round"/>
<path d="M13.9905 9.99297L11.9345 7.937C11.6846 7.6872 11.3458 7.54688 10.9924 7.54688C10.6391 7.54688 10.3003 7.6872 10.0504 7.937L3.99707 13.9903" stroke="#FBFBFB" stroke-width="1.33245" stroke-linecap="round" stroke-linejoin="round"/>
</svg>
