<svg width="24" height="24" viewBox="0 0 24 24" fill="none" xmlns="http://www.w3.org/2000/svg">
<path d="M14.3938 1.91917H8.63634C8.10638 1.91917 7.67676 2.34879 7.67676 2.87876V4.79792C7.67676 5.32789 8.10638 5.75751 8.63634 5.75751H14.3938C14.9238 5.75751 15.3534 5.32789 15.3534 4.79792V2.87876C15.3534 2.34879 14.9238 1.91917 14.3938 1.91917Z" stroke="#409EE3" stroke-width="2" stroke-linecap="round" stroke-linejoin="round"/>
<path d="M15.3529 3.83835H17.2721C17.7811 3.83835 18.2692 4.04055 18.6291 4.40046C18.989 4.76037 19.1912 5.24852 19.1912 5.75752V19.1917C19.1912 19.7007 18.989 20.1888 18.6291 20.5487C18.2692 20.9087 17.7811 21.1108 17.2721 21.1108H5.75706C5.24806 21.1108 4.75992 20.9087 4.4 20.5487C4.04009 20.1888 3.83789 19.7007 3.83789 19.1917V5.75752C3.83789 5.24852 4.04009 4.76037 4.4 4.40046C4.75992 4.04055 5.24806 3.83835 5.75706 3.83835H7.67622" stroke="#409EE3" stroke-width="2" stroke-linecap="round" stroke-linejoin="round"/>
<path d="M11.5146 10.5554H15.353" stroke="#409EE3" stroke-width="2" stroke-linecap="round" stroke-linejoin="round"/>
<path d="M11.5146 15.3533H15.353" stroke="#409EE3" stroke-width="2" stroke-linecap="round" stroke-linejoin="round"/>
<path d="M7.67676 10.5554H7.68635" stroke="#409EE3" stroke-width="2" stroke-linecap="round" stroke-linejoin="round"/>
<path d="M7.67676 15.3533H7.68635" stroke="#409EE3" stroke-width="2" stroke-linecap="round" stroke-linejoin="round"/>
</svg>
