<svg width="16" height="16" viewBox="0 0 16 16" fill="none" xmlns="http://www.w3.org/2000/svg">
<g clip-path="url(#clip0_1980_19923)">
<path d="M10.6607 13.9915V12.659C10.6607 11.9522 10.3799 11.2743 9.8801 10.7745C9.3803 10.2747 8.70244 9.99393 7.99562 9.99393H3.99805C3.29124 9.99393 2.61337 10.2747 2.11358 10.7745C1.61379 11.2743 1.33301 11.9522 1.33301 12.659V13.9915" stroke="#409EE3" stroke-width="1.33252" stroke-linecap="round" stroke-linejoin="round"/>
<path d="M10.6602 2.08406C11.2316 2.23222 11.7378 2.56594 12.0991 3.03286C12.4604 3.49977 12.6564 4.07344 12.6564 4.66383C12.6564 5.25421 12.4604 5.82788 12.0991 6.29479C11.7378 6.76171 11.2316 7.09543 10.6602 7.24359" stroke="#409EE3" stroke-width="1.33252" stroke-linecap="round" stroke-linejoin="round"/>
<path d="M14.658 13.9915V12.659C14.6575 12.0685 14.461 11.4949 14.0992 11.0282C13.7374 10.5615 13.2309 10.2282 12.6592 10.0805" stroke="#409EE3" stroke-width="1.33252" stroke-linecap="round" stroke-linejoin="round"/>
<path d="M5.9961 7.32887C7.46797 7.32887 8.66115 6.13569 8.66115 4.66383C8.66115 3.19196 7.46797 1.99878 5.9961 1.99878C4.52424 1.99878 3.33105 3.19196 3.33105 4.66383C3.33105 6.13569 4.52424 7.32887 5.9961 7.32887Z" stroke="#409EE3" stroke-width="1.33252" stroke-linecap="round" stroke-linejoin="round"/>
</g>
<defs>
<clipPath id="clip0_1980_19923">
<rect width="15.9903" height="15.9903" fill="white"/>
</clipPath>
</defs>
</svg>
