<svg width="24" height="24" viewBox="0 0 24 24" fill="none" xmlns="http://www.w3.org/2000/svg">
<path d="M9.59375 10.5537V16.3102" stroke="#FF6B6B" stroke-width="1.91883" stroke-linecap="round" stroke-linejoin="round"/>
<path d="M13.4316 10.5537V16.3102" stroke="#FF6B6B" stroke-width="1.91883" stroke-linecap="round" stroke-linejoin="round"/>
<path d="M18.2277 5.75667V19.1885C18.2277 19.6974 18.0256 20.1855 17.6657 20.5453C17.3059 20.9052 16.8178 21.1073 16.3089 21.1073H6.71473C6.20583 21.1073 5.71776 20.9052 5.35791 20.5453C4.99806 20.1855 4.7959 19.6974 4.7959 19.1885V5.75667" stroke="#FF6B6B" stroke-width="1.91883" stroke-linecap="round" stroke-linejoin="round"/>
<path d="M2.87793 5.75667H20.1474" stroke="#FF6B6B" stroke-width="1.91883" stroke-linecap="round" stroke-linejoin="round"/>
<path d="M7.67383 5.75672V3.83789C7.67383 3.32898 7.87599 2.84092 8.23584 2.48107C8.59569 2.12121 9.08376 1.91905 9.59266 1.91905H13.4303C13.9392 1.91905 14.4273 2.12121 14.7871 2.48107C15.147 2.84092 15.3492 3.32898 15.3492 3.83789V5.75672" stroke="#FF6B6B" stroke-width="1.91883" stroke-linecap="round" stroke-linejoin="round"/>
</svg>
