<svg width="20" height="20" viewBox="0 0 20 20" fill="none" xmlns="http://www.w3.org/2000/svg">
<path d="M16.6606 8.33035C16.6606 12.4897 12.0464 16.8215 10.497 18.1593C10.3526 18.2679 10.1769 18.3265 9.9963 18.3265C9.8157 18.3265 9.63999 18.2679 9.49565 18.1593C7.94621 16.8215 3.33203 12.4897 3.33203 8.33035C3.33203 6.56287 4.03416 4.86779 5.28395 3.618C6.53374 2.3682 8.22883 1.66608 9.9963 1.66608C11.7638 1.66608 13.4589 2.3682 14.7087 3.618C15.9584 4.86779 16.6606 6.56287 16.6606 8.33035Z" stroke="#A8A8A8" stroke-width="1.66607" stroke-linecap="round" stroke-linejoin="round"/>
<path d="M9.99715 10.8294C11.3774 10.8294 12.4962 9.71055 12.4962 8.33034C12.4962 6.95012 11.3774 5.83124 9.99715 5.83124C8.61693 5.83124 7.49805 6.95012 7.49805 8.33034C7.49805 9.71055 8.61693 10.8294 9.99715 10.8294Z" stroke="#A8A8A8" stroke-width="1.66607" stroke-linecap="round" stroke-linejoin="round"/>
</svg>
