<svg width="24" height="24" viewBox="0 0 24 24" fill="none" xmlns="http://www.w3.org/2000/svg">
<path d="M11.5137 2.87852H4.79774C4.28883 2.87852 3.80077 3.08069 3.44092 3.44054C3.08107 3.80039 2.87891 4.28845 2.87891 4.79736V18.2292C2.87891 18.7381 3.08107 19.2262 3.44092 19.586C3.80077 19.9459 4.28883 20.148 4.79774 20.148H18.2296C18.7385 20.148 19.2265 19.9459 19.5864 19.586C19.9462 19.2262 20.1484 18.7381 20.1484 18.2292V11.5133" stroke="#409EE3" stroke-width="1.91883" stroke-linecap="round" stroke-linejoin="round"/>
<path d="M17.6287 2.51868C18.0104 2.137 18.528 1.92258 19.0678 1.92258C19.6076 1.92258 20.1253 2.137 20.5069 2.51868C20.8886 2.90036 21.103 3.41803 21.103 3.95781C21.103 4.49758 20.8886 5.01525 20.5069 5.39693L11.8597 14.0451C11.6319 14.2727 11.3505 14.4394 11.0413 14.5296L8.28492 15.3355C8.20237 15.3596 8.11486 15.3611 8.03155 15.3397C7.94825 15.3184 7.87221 15.275 7.8114 15.2142C7.75059 15.1534 7.70725 15.0774 7.68591 14.9941C7.66456 14.9108 7.66601 14.8232 7.69009 14.7407L8.496 11.9843C8.58669 11.6754 8.75363 11.3943 8.98146 11.1669L17.6287 2.51868Z" stroke="#409EE3" stroke-width="1.91883" stroke-linecap="round" stroke-linejoin="round"/>
</svg>
