<svg width="20" height="20" viewBox="0 0 20 20" fill="none" xmlns="http://www.w3.org/2000/svg">
<g clip-path="url(#clip0_1482_48523)">
<path d="M13.3285 17.4937V15.8276C13.3285 14.9439 12.9774 14.0964 12.3525 13.4715C11.7276 12.8466 10.8801 12.4955 9.99635 12.4955H4.99815C4.11441 12.4955 3.26687 12.8466 2.64198 13.4715C2.01708 14.0964 1.66602 14.9439 1.66602 15.8276V17.4937" stroke="#A8A8A8" stroke-width="1.66607" stroke-linecap="round" stroke-linejoin="round"/>
<path d="M13.3281 2.60571C14.0427 2.79095 14.6755 3.20822 15.1272 3.79201C15.579 4.37579 15.8241 5.09306 15.8241 5.83122C15.8241 6.56938 15.579 7.28665 15.1272 7.87043C14.6755 8.45422 14.0427 8.87148 13.3281 9.05673" stroke="#A8A8A8" stroke-width="1.66607" stroke-linecap="round" stroke-linejoin="round"/>
<path d="M18.3272 17.4937V15.8276C18.3267 15.0893 18.0809 14.3721 17.6286 13.7886C17.1763 13.2051 16.543 12.7884 15.8281 12.6038" stroke="#A8A8A8" stroke-width="1.66607" stroke-linecap="round" stroke-linejoin="round"/>
<path d="M7.49815 9.16339C9.33844 9.16339 10.8303 7.67154 10.8303 5.83125C10.8303 3.99096 9.33844 2.49911 7.49815 2.49911C5.65786 2.49911 4.16602 3.99096 4.16602 5.83125C4.16602 7.67154 5.65786 9.16339 7.49815 9.16339Z" stroke="#A8A8A8" stroke-width="1.66607" stroke-linecap="round" stroke-linejoin="round"/>
</g>
<defs>
<clipPath id="clip0_1482_48523">
<rect width="19.9928" height="19.9928" fill="white"/>
</clipPath>
</defs>
</svg>
