<svg width="14" height="14" viewBox="0 0 14 14" fill="none" xmlns="http://www.w3.org/2000/svg">
<g clip-path="url(#clip0_1482_32873)">
<path d="M8.06346 9.6584C8.18385 9.7137 8.31949 9.72633 8.44802 9.69422C8.57656 9.66211 8.69032 9.58718 8.77057 9.48177L8.97752 9.2107C9.08612 9.0659 9.22694 8.94837 9.38883 8.86743C9.55072 8.78648 9.72924 8.74434 9.91024 8.74434H11.6591C11.9683 8.74434 12.2648 8.86718 12.4835 9.08582C12.7021 9.30447 12.825 9.60102 12.825 9.91024V11.6591C12.825 11.9683 12.7021 12.2648 12.4835 12.4835C12.2648 12.7021 11.9683 12.825 11.6591 12.825C8.87615 12.825 6.2072 11.7195 4.23936 9.75163C2.27153 7.7838 1.16602 5.11485 1.16602 2.33191C1.16602 2.0227 1.28885 1.72615 1.5075 1.5075C1.72615 1.28885 2.0227 1.16602 2.33191 1.16602H4.08076C4.38997 1.16602 4.68652 1.28885 4.90517 1.5075C5.12382 1.72615 5.24665 2.0227 5.24665 2.33191V4.08076C5.24665 4.26176 5.20451 4.44027 5.12357 4.60216C5.04262 4.76405 4.92509 4.90487 4.78029 5.01347L4.50747 5.21809C4.40045 5.2998 4.32502 5.41605 4.29399 5.54708C4.26296 5.6781 4.27825 5.81583 4.33725 5.93686C5.13396 7.55505 6.44428 8.86373 8.06346 9.6584Z" stroke="#5E5E5E" stroke-width="1.1659" stroke-linecap="round" stroke-linejoin="round"/>
</g>
<defs>
<clipPath id="clip0_1482_32873">
<rect width="13.9908" height="13.9908" fill="white"/>
</clipPath>
</defs>
</svg>
