<svg width="24" height="24" viewBox="0 0 24 24" fill="none" xmlns="http://www.w3.org/2000/svg">
<path d="M11.5232 2.29484C11.567 2.20632 11.6347 2.1318 11.7186 2.07971C11.8025 2.02761 11.8993 2 11.9981 2C12.0969 2 12.1937 2.02761 12.2776 2.07971C12.3615 2.1318 12.4292 2.20632 12.473 2.29484L14.7826 6.97303C14.9348 7.28095 15.1594 7.54734 15.4371 7.74935C15.7149 7.95136 16.0375 8.08295 16.3774 8.13283L21.5425 8.8887C21.6403 8.90288 21.7323 8.94416 21.8079 9.00788C21.8835 9.0716 21.9398 9.1552 21.9704 9.24924C22.001 9.34329 22.0047 9.44401 21.981 9.54002C21.9573 9.63604 21.9072 9.72351 21.8364 9.79254L18.1011 13.4299C17.8547 13.67 17.6704 13.9663 17.564 14.2934C17.4576 14.6205 17.4322 14.9685 17.4902 15.3076L18.372 20.4467C18.3893 20.5445 18.3787 20.6452 18.3415 20.7373C18.3043 20.8294 18.242 20.9092 18.1616 20.9676C18.0812 21.026 17.9861 21.0606 17.887 21.0675C17.7879 21.0744 17.6888 21.0533 17.6011 21.0066L12.9839 18.579C12.6797 18.4193 12.3412 18.3358 11.9976 18.3358C11.654 18.3358 11.3155 18.4193 11.0113 18.579L6.39508 21.0066C6.30743 21.053 6.20851 21.0739 6.10959 21.0668C6.01066 21.0598 5.91569 21.0252 5.83548 20.9668C5.75527 20.9085 5.69304 20.8288 5.65587 20.7369C5.6187 20.6449 5.60808 20.5444 5.62522 20.4467L6.50607 15.3086C6.56425 14.9694 6.53904 14.6211 6.43262 14.2938C6.32619 13.9665 6.14174 13.67 5.89517 13.4299L2.15982 9.79354C2.08842 9.72459 2.03783 9.63697 2.01381 9.54066C1.98978 9.44436 1.99328 9.34324 2.02392 9.24883C2.05456 9.15442 2.11109 9.07051 2.18709 9.00666C2.26309 8.94282 2.35549 8.9016 2.45377 8.8877L7.61787 8.13283C7.95807 8.08334 8.28115 7.95192 8.55929 7.74988C8.83744 7.54785 9.06233 7.28125 9.2146 6.97303L11.5232 2.29484Z" fill="#FFD700" stroke="#FFD700" stroke-width="1.99965" stroke-linecap="round" stroke-linejoin="round"/>
</svg>
