<svg width="20" height="20" viewBox="0 0 20 20" fill="none" xmlns="http://www.w3.org/2000/svg">
<g clip-path="url(#clip0_1482_48307)">
<path d="M18.1666 8.33258C18.5471 10.2002 18.2759 12.1418 17.3982 13.8337C16.5204 15.5255 15.0892 16.8653 13.3432 17.6296C11.5972 18.394 9.64191 18.5366 7.80344 18.0338C5.96498 17.531 4.35445 16.4131 3.24044 14.8666C2.12643 13.3201 1.57627 11.4384 1.68171 9.53531C1.78716 7.63224 2.54183 5.82284 3.81987 4.40885C5.09792 2.99486 6.82209 2.06174 8.70485 1.76512C10.5876 1.46849 12.5152 1.82628 14.166 2.77883" stroke="#FBFBFB" stroke-width="1.66654" stroke-linecap="round" stroke-linejoin="round"/>
<path d="M7.49902 9.1659L9.99883 11.6657L18.3315 3.33301" stroke="#FBFBFB" stroke-width="1.66654" stroke-linecap="round" stroke-linejoin="round"/>
</g>
<defs>
<clipPath id="clip0_1482_48307">
<rect width="19.9985" height="19.9985" fill="white"/>
</clipPath>
</defs>
</svg>
