<svg width="20" height="20" viewBox="0 0 20 20" fill="none" xmlns="http://www.w3.org/2000/svg">
<g clip-path="url(#clip0_1482_48225)">
<path d="M11.5262 13.8056C11.6983 13.8846 11.8922 13.9027 12.0759 13.8568C12.2597 13.8109 12.4223 13.7038 12.537 13.5531L12.8328 13.1656C12.988 12.9587 13.1893 12.7907 13.4207 12.675C13.6522 12.5593 13.9073 12.499 14.166 12.499H16.6659C17.1078 12.499 17.5317 12.6746 17.8443 12.9871C18.1568 13.2997 18.3324 13.7236 18.3324 14.1656V16.6654C18.3324 17.1074 18.1568 17.5313 17.8443 17.8438C17.5317 18.1563 17.1078 18.3319 16.6659 18.3319C12.6879 18.3319 8.87289 16.7517 6.06006 13.9388C3.24723 11.126 1.66699 7.31099 1.66699 3.33304C1.66699 2.89105 1.84257 2.46716 2.15511 2.15462C2.46765 1.84209 2.89154 1.6665 3.33353 1.6665H5.83334C6.27534 1.6665 6.69923 1.84209 7.01176 2.15462C7.3243 2.46716 7.49988 2.89105 7.49988 3.33304V5.83285C7.49988 6.09158 7.43965 6.34675 7.32394 6.57815C7.20824 6.80956 7.04024 7.01085 6.83327 7.16609L6.4433 7.45857C6.29032 7.57537 6.1825 7.74153 6.13815 7.92882C6.09379 8.11611 6.11564 8.31298 6.19998 8.48599C7.3388 10.799 9.21177 12.6697 11.5262 13.8056Z" stroke="#409EE3" stroke-width="1.66654" stroke-linecap="round" stroke-linejoin="round"/>
</g>
<defs>
<clipPath id="clip0_1482_48225">
<rect width="19.9985" height="19.9985" fill="white"/>
</clipPath>
</defs>
</svg>
