<svg width="20" height="20" viewBox="0 0 20 20" fill="none" xmlns="http://www.w3.org/2000/svg">
<path d="M8.33203 9.99805H11.665" stroke="#409EE3" stroke-width="1.6665" stroke-linecap="round" stroke-linejoin="round"/>
<path d="M8.33203 6.66602H11.665" stroke="#409EE3" stroke-width="1.6665" stroke-linecap="round" stroke-linejoin="round"/>
<path d="M11.665 17.4983V14.9985C11.665 14.5565 11.4895 14.1327 11.1769 13.8201C10.8644 13.5076 10.4405 13.332 9.99853 13.332C9.55655 13.332 9.13267 13.5076 8.82014 13.8201C8.50761 14.1327 8.33203 14.5565 8.33203 14.9985V17.4983" stroke="#409EE3" stroke-width="1.6665" stroke-linecap="round" stroke-linejoin="round"/>
<path d="M4.99902 8.33178H3.33252C2.89053 8.33178 2.46665 8.50736 2.15412 8.81989C1.84159 9.13242 1.66602 9.5563 1.66602 9.99828V15.831C1.66602 16.273 1.84159 16.6969 2.15412 17.0094C2.46665 17.322 2.89053 17.4975 3.33252 17.4975H16.6645C17.1065 17.4975 17.5304 17.322 17.8429 17.0094C18.1554 16.6969 18.331 16.273 18.331 15.831V7.49853C18.331 7.05655 18.1554 6.63267 17.8429 6.32014C17.5304 6.00761 17.1065 5.83203 16.6645 5.83203H14.998" stroke="#409EE3" stroke-width="1.6665" stroke-linecap="round" stroke-linejoin="round"/>
<path d="M4.99902 17.4985V4.1665C4.99902 3.72452 5.1746 3.30064 5.48713 2.98811C5.79966 2.67558 6.22354 2.5 6.66552 2.5H13.3315C13.7735 2.5 14.1974 2.67558 14.5099 2.98811C14.8224 3.30064 14.998 3.72452 14.998 4.1665V17.4985" stroke="#409EE3" stroke-width="1.6665" stroke-linecap="round" stroke-linejoin="round"/>
</svg>
