<svg width="21" height="21" viewBox="0 0 21 21" fill="none" xmlns="http://www.w3.org/2000/svg">
<path d="M18.4524 4.29309L18.9424 3.23309L20.0024 2.74309C20.0897 2.70332 20.1637 2.63928 20.2156 2.5586C20.2675 2.47792 20.2951 2.38402 20.2951 2.28809C20.2951 2.19217 20.2675 2.09826 20.2156 2.01759C20.1637 1.93691 20.0897 1.87287 20.0024 1.83309L18.9424 1.34309L18.4524 0.293093C18.4127 0.205799 18.3486 0.131788 18.268 0.0798903C18.1873 0.0279921 18.0934 0.000397086 17.9974 0.000397086C17.9015 0.000397086 17.8076 0.0279921 17.7269 0.0798903C17.6463 0.131788 17.5822 0.205799 17.5424 0.293093L17.0524 1.35309L16.0024 1.84309C15.9151 1.88287 15.8411 1.94691 15.7892 2.02759C15.7373 2.10826 15.7097 2.20217 15.7097 2.29809C15.7097 2.39402 15.7373 2.48792 15.7892 2.5686C15.8411 2.64928 15.9151 2.71332 16.0024 2.75309L17.0624 3.24309L17.5524 4.29309C17.7224 4.68309 18.2824 4.68309 18.4524 4.29309ZM6.95244 4.29309L7.44244 3.23309L8.50244 2.74309C8.58974 2.70332 8.66375 2.63928 8.71565 2.5586C8.76754 2.47792 8.79514 2.38402 8.79514 2.28809C8.79514 2.19217 8.76754 2.09826 8.71565 2.01759C8.66375 1.93691 8.58974 1.87287 8.50244 1.83309L7.44244 1.35309L6.95244 0.293093C6.9139 0.205892 6.85085 0.131767 6.77096 0.0797341C6.69107 0.0277008 6.59778 0 6.50244 0C6.4071 0 6.31382 0.0277008 6.23393 0.0797341C6.15404 0.131767 6.09099 0.205892 6.05244 0.293093L5.56244 1.35309L4.50244 1.84309C4.41515 1.88287 4.34114 1.94691 4.28924 2.02759C4.23734 2.10826 4.20975 2.20217 4.20975 2.29809C4.20975 2.39402 4.23734 2.48792 4.28924 2.5686C4.34114 2.64928 4.41515 2.71332 4.50244 2.75309L5.56244 3.24309L6.05244 4.29309C6.22244 4.68309 6.78244 4.68309 6.95244 4.29309ZM17.5524 11.7931L17.0624 12.8531L16.0024 13.3431C15.9151 13.3829 15.8411 13.4469 15.7892 13.5276C15.7373 13.6083 15.7097 13.7022 15.7097 13.7981C15.7097 13.894 15.7373 13.9879 15.7892 14.0686C15.8411 14.1493 15.9151 14.2133 16.0024 14.2531L17.0624 14.7431L17.5524 15.8031C17.5922 15.8904 17.6563 15.9644 17.7369 16.0163C17.8176 16.0682 17.9115 16.0958 18.0074 16.0958C18.1034 16.0958 18.1973 16.0682 18.278 16.0163C18.3586 15.9644 18.4227 15.8904 18.4624 15.8031L18.9524 14.7431L20.0024 14.2431C20.0897 14.2033 20.1637 14.1393 20.2156 14.0586C20.2675 13.9779 20.2951 13.884 20.2951 13.7881C20.2951 13.6922 20.2675 13.5983 20.2156 13.5176C20.1637 13.4369 20.0897 13.3729 20.0024 13.3331L18.9424 12.8431L18.4524 11.7831C18.2824 11.4031 17.7224 11.4031 17.5524 11.7931ZM15.7124 7.41309L12.8824 4.58309C12.7899 4.49039 12.68 4.41684 12.5591 4.36666C12.4381 4.31648 12.3084 4.29065 12.1774 4.29065C12.0465 4.29065 11.9168 4.31648 11.7958 4.36666C11.6748 4.41684 11.565 4.49039 11.4724 4.58309L0.292444 15.7531C0.19974 15.8456 0.126193 15.9555 0.0760114 16.0765C0.02583 16.1974 0 16.3271 0 16.4581C0 16.5891 0.02583 16.7187 0.0760114 16.8397C0.126193 16.9607 0.19974 17.0706 0.292444 17.1631L3.12244 19.9931C3.51244 20.3831 4.14244 20.3831 4.53244 19.9931L15.7024 8.82309C16.1024 8.44309 16.1024 7.80309 15.7124 7.41309ZM12.2124 9.50309L10.8024 8.09309L12.1824 6.71309L13.5924 8.12309L12.2124 9.50309Z" fill="#409EE3"/>
</svg>
