<svg width="19" height="20" viewBox="0 0 19 20" fill="none" xmlns="http://www.w3.org/2000/svg">
<path d="M4.66667 2.83398H2.83333C2.3471 2.83398 1.88079 3.02714 1.53697 3.37096C1.19315 3.71477 1 4.18109 1 4.66732V15.6673C1 16.1535 1.19315 16.6199 1.53697 16.9637C1.88079 17.3075 2.3471 17.5007 2.83333 17.5007H8.05558M13.8333 11.084V14.7507H17.5M13.8333 8.33398V4.66732C13.8333 4.18109 13.6402 3.71477 13.2964 3.37096C12.9525 3.02714 12.4862 2.83398 12 2.83398H10.1667" stroke="#409EE3" stroke-width="2" stroke-linecap="round" stroke-linejoin="round"/>
<path d="M4.66699 8.33333H8.33366M4.66699 12H7.41699M4.66699 2.83333C4.66699 2.3471 4.86015 1.88079 5.20396 1.53697C5.54778 1.19315 6.0141 1 6.50033 1H8.33366C8.81989 1 9.2862 1.19315 9.63002 1.53697C9.97384 1.88079 10.167 2.3471 10.167 2.83333C10.167 3.31956 9.97384 3.78588 9.63002 4.1297C9.2862 4.47351 8.81989 4.66667 8.33366 4.66667H6.50033C6.0141 4.66667 5.54778 4.47351 5.20396 4.1297C4.86015 3.78588 4.66699 3.31956 4.66699 2.83333ZM10.167 14.75C10.167 15.7225 10.5533 16.6551 11.2409 17.3427C11.9286 18.0304 12.8612 18.4167 13.8337 18.4167C14.8061 18.4167 15.7387 18.0304 16.4264 17.3427C17.114 16.6551 17.5003 15.7225 17.5003 14.75C17.5003 13.7775 17.114 12.8449 16.4264 12.1573C15.7387 11.4696 14.8061 11.0833 13.8337 11.0833C12.8612 11.0833 11.9286 11.4696 11.2409 12.1573C10.5533 12.8449 10.167 13.7775 10.167 14.75Z" stroke="#409EE3" stroke-width="2" stroke-linecap="round" stroke-linejoin="round"/>
</svg>
