<svg width="18" height="18" viewBox="0 0 18 18" fill="none" xmlns="http://www.w3.org/2000/svg">
<path d="M1.6875 1.96875V15.1875H17.1562C17.38 15.1875 17.5946 15.2764 17.7529 15.4346C17.9111 15.5929 18 15.8075 18 16.0312C18 16.255 17.9111 16.4696 17.7529 16.6279C17.5946 16.7861 17.38 16.875 17.1562 16.875H0.84375C0.619974 16.875 0.405362 16.7861 0.247129 16.6279C0.0888948 16.4696 0 16.255 0 16.0312L0 1.96875C0 1.74497 0.0888948 1.53036 0.247129 1.37213C0.405362 1.21389 0.619974 1.125 0.84375 1.125C1.06753 1.125 1.28214 1.21389 1.44037 1.37213C1.59861 1.53036 1.6875 1.74497 1.6875 1.96875ZM17.7525 4.815L11.8462 10.7212C11.688 10.8793 11.4736 10.968 11.25 10.968C11.0264 10.968 10.812 10.8793 10.6538 10.7212L7.875 7.9425L4.815 11.0025C4.65509 11.1517 4.44347 11.233 4.22478 11.2292C4.00609 11.2255 3.79741 11.1369 3.64275 10.9823C3.48809 10.8276 3.39954 10.6189 3.39576 10.4002C3.39198 10.1815 3.47328 9.96991 3.6225 9.81L7.27875 6.15375C7.43695 5.99574 7.65141 5.90699 7.875 5.90699C8.09859 5.90699 8.31305 5.99574 8.47125 6.15375L11.25 8.9325L16.56 3.6225C16.7199 3.47328 16.9315 3.39198 17.1502 3.39576C17.3689 3.39954 17.5776 3.48809 17.7323 3.64275C17.8869 3.79741 17.9755 4.00609 17.9792 4.22478C17.983 4.44347 17.9017 4.65509 17.7525 4.815Z" fill="#409EE3"/>
</svg>
